{
  "accessors": [
    {
      "bufferView": 2,
      "componentType": 5126,
      "count": 2422,
      "max": [
        10.998958587646484,
        -13.719226837158203,
        22.422794342041016
      ],
      "min": [
        -10.999136924743652,
        -32.72113037109375,
        16.180522918701172
      ],
      "type": "VEC3"
    },
    {
      "bufferView": 2,
      "byteOffset": 29064,
      "componentType": 5126,
      "count": 2422,
      "max": [
        0.9577222466468811,
        0.626059889793396,
        0.9998308420181274
      ],
      "min": [
        -0.9578723311424255,
        -0.8309007883071899,
        0.25902897119522095
      ],
      "type": "VEC3"
    },
    {
      "bufferView": 1,
      "componentType": 5126,
      "count": 2422,
      "max": [
        1.0095210075378418,
        0.1511410027742386
      ],
      "min": [
        -1.0095160007476807,
        -1.8237260580062866
      ],
      "type": "VEC2"
    },
    {
      "bufferView": 0,
      "componentType": 5125,
      "count": 12084,
      "type": "SCALAR"
    },
    {
      "bufferView": 2,
      "byteOffset": 58128,
      "componentType": 5126,
      "count": 16998,
      "max": [
        20.85398292541504,
        -0.9976440072059631,
        23.933673858642578
      ],
      "min": [
        -20.855226516723633,
        -50.7420654296875,
        -19.510095596313477
      ],
      "type": "VEC3"
    },
    {
      "bufferView": 2,
      "byteOffset": 262104,
      "componentType": 5126,
      "count": 16998,
      "max": [
        0.9999767541885376,
        1.0,
        0.9999901056289673
      ],
      "min": [
        -0.9999963641166687,
        -1.0,
        -0.9999990463256836
      ],
      "type": "VEC3"
    },
    {
      "bufferView": 1,
      "byteOffset": 19376,
      "componentType": 5126,
      "count": 16998,
      "max": [
        3.394932985305786,
        12.891569137573242
      ],
      "min": [
        -2.301666021347046,
        -1.996716022491455
      ],
      "type": "VEC2"
    },
    {
      "bufferView": 0,
      "byteOffset": 48336,
      "componentType": 5125,
      "count": 90543,
      "type": "SCALAR"
    },
    {
      "bufferView": 2,
      "byteOffset": 466080,
      "componentType": 5126,
      "count": 2126,
      "max": [
        14.918858528137207,
        -27.772485733032227,
        -13.163834571838379
      ],
      "min": [
        -14.918181419372559,
        -35.72549819946289,
        -20.003868103027344
      ],
      "type": "VEC3"
    },
    {
      "bufferView": 2,
      "byteOffset": 491592,
      "componentType": 5126,
      "count": 2126,
      "max": [
        0.995940089225769,
        0.9971736669540405,
        0.22075073421001434
      ],
      "min": [
        -0.997563362121582,
        -0.9992343783378601,
        -0.9998816251754761
      ],
      "type": "VEC3"
    },
    {
      "bufferView": 1,
      "byteOffset": 155360,
      "componentType": 5126,
      "count": 2126,
      "max": [
        0.2598089873790741,
        0.6034700274467468
      ],
      "min": [
        -0.2602179944515228,
        -1.2977770566940308
      ],
      "type": "VEC2"
    },
    {
      "bufferView": 0,
      "byteOffset": 410508,
      "componentType": 5125,
      "count": 10635,
      "type": "SCALAR"
    },
    {
      "bufferView": 2,
      "byteOffset": 517104,
      "componentType": 5126,
      "count": 8509,
      "max": [
        15.326988220214844,
        -1.0,
        19.220678329467773
      ],
      "min": [
        -15.313882827758789,
        -19.430540084838867,
        -17.76251220703125
      ],
      "type": "VEC3"
    },
    {
      "bufferView": 2,
      "byteOffset": 619212,
      "componentType": 5126,
      "count": 8509,
      "max": [
        0.9999659657478333,
        1.0,
        0.9973750710487366
      ],
      "min": [
        -0.9999366998672485,
        -0.9997174739837646,
        -0.9999778866767883
      ],
      "type": "VEC3"
    },
    {
      "bufferView": 1,
      "byteOffset": 172368,
      "componentType": 5126,
      "count": 8509,
      "max": [
        1.7832729816436768,
        8.417969703674316
      ],
      "min": [
        -1.5992909669876099,
        -2.5215930938720703
      ],
      "type": "VEC2"
    },
    {
      "bufferView": 0,
      "byteOffset": 453048,
      "componentType": 5125,
      "count": 48228,
      "type": "SCALAR"
    }
  ],
  "asset": {
    "extras": {
      "author": "ganganchen (https://sketchfab.com/ganganchen)",
      "license": "CC-BY-NC-4.0 (http://creativecommons.org/licenses/by-nc/4.0/)",
      "source": "https://sketchfab.com/3d-models/capoo-271a0bddcc4e4d61be1dd93c4ae43206",
      "title": "Capoo"
    },
    "generator": "Sketchfab-14.89.0",
    "version": "2.0"
  },
  "bufferViews": [
    {
      "buffer": 0,
      "byteLength": 645960,
      "name": "floatBufferViews",
      "target": 34963
    },
    {
      "buffer": 0,
      "byteLength": 240440,
      "byteOffset": 645960,
      "byteStride": 8,
      "name": "floatBufferViews",
      "target": 34962
    },
    {
      "buffer": 0,
      "byteLength": 721320,
      "byteOffset": 886400,
      "byteStride": 12,
      "name": "floatBufferViews",
      "target": 34962
    }
  ],
  "buffers": [
    {
      "byteLength": 1607720,
      "uri": "scene.bin"
    }
  ],
  "materials": [
    {
      "doubleSided": true,
      "name": "ABS_White",
      "pbrMetallicRoughness": {
        "baseColorFactor": [
          0.14439347230770258,
          0.3737671532017145,
          0.5259747095201842,
          1.0
        ],
        "metallicFactor": 0.0,
        "roughnessFactor": 0.6
      }
    },
    {
      "doubleSided": true,
      "name": "ABS_White_1",
      "pbrMetallicRoughness": {
        "baseColorFactor": [
          0.2527695292606712,
          0.6540836147865692,
          1.0,
          1.0
        ],
        "metallicFactor": 0.0,
        "roughnessFactor": 0.6
      }
    },
    {
      "doubleSided": true,
      "name": "ABS_White_2",
      "pbrMetallicRoughness": {
        "baseColorFactor": [
          0.0,
          0.0,
          0.0,
          1.0
        ],
        "metallicFactor": 0.0,
        "roughnessFactor": 0.2482758620689655
      }
    },
    {
      "doubleSided": true,
      "name": "ABS_White_3",
      "pbrMetallicRoughness": {
        "metallicFactor": 0.0,
        "roughnessFactor": 0.6
      }
    }
  ],
  "meshes": [
    {
      "name": "Object_0",
      "primitives": [
        {
          "attributes": {
            "NORMAL": 1,
            "POSITION": 0,
            "TEXCOORD_0": 2
          },
          "indices": 3,
          "material": 0,
          "mode": 4
        }
      ]
    },
    {
      "name": "Object_1",
      "primitives": [
        {
          "attributes": {
            "NORMAL": 5,
            "POSITION": 4,
            "TEXCOORD_0": 6
          },
          "indices": 7,
          "material": 1,
          "mode": 4
        }
      ]
    },
    {
      "name": "Object_2",
      "primitives": [
        {
          "attributes": {
            "NORMAL": 9,
            "POSITION": 8,
            "TEXCOORD_0": 10
          },
          "indices": 11,
          "material": 2,
          "mode": 4
        }
      ]
    },
    {
      "name": "Object_3",
      "primitives": [
        {
          "attributes": {
            "NORMAL": 13,
            "POSITION": 12,
            "TEXCOORD_0": 14
          },
          "indices": 15,
          "material": 3,
          "mode": 4
        }
      ]
    }
  ],
  "nodes": [
    {
      "children": [
        1
      ],
      "matrix": [
        1.0,
        1.6056410811200703e-16,
        -1.6106004590262438e-16,
        0.0,
        1.6081226229577292e-16,
        -0.9999988079071045,
        0.0015419918345285222,
        0.0,
        -1.6081226229577292e-16,
        -0.0015419918345285222,
        -0.9999988079071045,
        0.0,
        0.0,
        0.0,
        0.0,
        1.0
      ],
      "name": "Sketchfab_model"
    },
    {
      "children": [
        2,
        3,
        4,
        5
      ],
      "name": "capoo.obj.cleaner.materialmerger.gles"
    },
    {
      "mesh": 0,
      "name": "Object_2"
    },
    {
      "mesh": 1,
      "name": "Object_3"
    },
    {
      "mesh": 2,
      "name": "Object_4"
    },
    {
      "mesh": 3,
      "name": "Object_5"
    }
  ],
  "scene": 0,
  "scenes": [
    {
      "name": "Sketchfab_Scene",
      "nodes": [
        0
      ]
    }
  ]
}
