<svg width="209" height="153" viewBox="0 0 209 153" fill="none" xmlns="http://www.w3.org/2000/svg">
<path d="M75.0981 84.0605C84.1133 83.7046 93.5716 83.489 103.381 83.489C160.215 83.489 206.346 90.002 206.346 98.0787C206.346 98.6394 206.114 99.1624 205.72 99.6907H206.177L206.852 140.063V141.319C206.909 143.271 206.909 145.228 206.965 147.137V148.269C207.021 151.871 207.077 155.478 207.141 159.079V160.077C207.591 174.445 207.816 188.728 208.041 202.972C183.731 209.615 145.258 217.562 97.4252 217.039C56.4559 216.645 23.0251 210.181 0.297211 204.32V99.5128H0.923072C0.585529 99.0384 0.409725 98.5531 0.409725 98.0787C0.409725 93.3448 16.45 89.0909 41.3298 86.449C51.3014 85.3599 62.7497 84.5296 75.0981 84.0605Z" fill="#F9B53F"/>
<path d="M114.148 79.4075C114.999 79.3644 115.842 79.3644 116.693 79.4992C119.246 79.8874 121.623 81.0573 123.268 82.8797C125.139 80.2756 128.767 78.712 132.621 78.7983C136.418 78.9331 139.815 80.626 141.46 83.2733C142.986 81.0196 146.221 79.7148 149.505 80.0168C152.62 80.2756 155.286 81.9685 156.193 84.2761C157.044 83.8394 160.496 82.0117 165.314 82.4484C171.206 82.9714 174.272 86.4489 174.666 86.918C175.348 86.5298 178.745 84.6212 183.506 85.0957C189.174 85.6618 192.008 89.134 192.345 89.5707C195.067 88.0503 198.751 87.7861 201.698 88.9614C206.002 90.6544 206.515 94.2991 206.515 94.5148C206.459 95.4314 206.459 96.3857 206.459 97.3022C195.805 93.7384 182.486 90.0883 166.734 87.5327C143.331 83.7478 122.931 83.7478 107.91 84.7075C90.3438 84.3139 69.0927 84.9285 45.3521 87.964C28.4047 90.1368 13.391 93.1291 0.416738 96.2994C0.409707 95.6902 0.409706 95.1294 0.409706 94.5148C0.754281 91.9538 2.96238 89.7863 6.02136 88.9614C10.2196 87.8292 13.7848 89.8295 14.0661 89.9589C14.2419 89.6138 16 86.0931 21.042 85.0957C26.3654 84.0119 30.444 86.7455 30.6761 86.918C32.1458 84.357 35.3173 82.6209 38.9459 82.4484C44.2762 82.1896 47.3915 85.5324 47.504 85.7049C48.1861 84.9285 49.9371 83.1008 53.1156 82.2327C57.1943 81.1436 61.955 82.1033 65.4078 84.6643C65.5836 84.3139 66.8846 81.7097 70.5132 80.8039C73.5721 80.0168 77.0812 80.8417 79.3526 82.8366C79.8589 82.1896 81.1669 80.7123 83.6562 80.0168C86.9473 79.0193 90.9134 79.758 93.8036 81.8391C94.0849 81.4078 95.3859 79.3213 98.3323 78.5826C101.68 77.8008 105.702 79.0678 107.91 81.8391C108.48 81.3647 110.632 79.6717 114.148 79.4075Z" fill="#F14947"/>
<path d="M183.506 23.8362C182.149 29.0445 182.317 34.5601 181.748 39.8169C181.129 45.5428 180.39 51.2795 179.708 57.0485C178.464 68.3385 176.987 79.6231 175.461 90.9131C175.004 94.477 182.261 94.477 182.711 90.9131C184.075 79.8442 185.151 68.7267 186.002 57.6146C186.452 52.0559 186.733 46.5025 186.966 40.9438C187.191 35.4713 188.21 29.74 187.528 24.273C187.359 22.58 184.019 21.9276 183.506 23.8362ZM151.207 17.1938C150.356 19.7979 150.87 22.6231 150.982 25.2704C151.151 28.2681 151.376 31.2173 151.545 34.2151C151.889 40.3345 152.17 46.5025 152.452 52.622C153.021 64.7369 153.303 76.8464 153.584 88.9614C153.64 92.563 161.01 92.563 160.897 88.9614C160.44 76.8464 159.596 64.7369 158.513 52.622C158.007 46.6751 157.381 40.7281 156.706 34.7327C156.362 31.7403 156.08 28.7857 155.68 25.788C155.286 22.9682 155.286 19.7548 153.872 17.1506C153.359 16.3689 151.601 16.1101 151.207 17.1938ZM130.35 18.0187C128.88 23.75 130.125 30.3062 130.35 36.1668C130.582 42.723 130.35 49.2361 130.293 55.7491C130.125 68.6458 129.675 81.494 128.479 94.3422C128.198 97.5987 134.885 97.5987 135.167 94.3422C136.306 81.494 136.925 68.5973 136.644 55.7491C136.475 49.4086 135.905 43.0681 135.511 36.7329C135.279 33.5627 134.998 30.3924 134.604 27.2222C134.26 24.1436 134.147 20.9733 132.734 18.0187C132.333 17.2369 130.638 17.0644 130.35 18.0187ZM104.457 22.8819C104.626 34.2582 104.057 45.6345 104.514 57.0054C104.964 68.3816 105.308 79.7579 105.702 91.1288C105.815 94.3853 112.502 94.3853 112.333 91.1288C111.708 79.7579 111.025 68.3816 110.463 57.0054C109.893 45.5859 108.311 34.2582 107.46 22.8819C107.404 21.4046 104.457 21.4046 104.457 22.8819ZM79.6339 19.9758C78.558 25.4429 79.7464 31.3467 79.8027 36.9055C79.8589 42.8524 80.1473 48.7562 80.2598 54.7031C80.4285 66.5593 80.091 78.4963 79.5214 90.3524C79.3526 94.2128 87.1724 94.2128 87.3974 90.3524C88.0233 78.4531 87.9107 66.6024 87.1724 54.7031C86.8348 48.7562 86.3777 42.8093 85.4143 36.9055C84.9643 33.9509 84.3947 31.0017 83.8813 28.0039C83.4313 25.3135 83.2625 22.58 82.0178 19.9758C81.7295 19.1509 79.8589 18.9299 79.6339 19.9758ZM56.8498 29.74C54.93 34.9968 55.8934 41.332 55.8371 46.7613C55.8371 52.5842 55.7176 58.3533 55.6613 64.1708C55.6613 69.9883 55.6051 75.7627 55.5488 81.5803C55.4926 87.5326 54.8667 93.6089 55.4363 99.5559C55.7176 102.856 61.6738 102.812 62.0676 99.5559C62.7497 93.6467 62.2364 87.5326 62.1801 81.5803C62.1239 75.7627 61.9551 69.9883 61.7863 64.1708C61.6175 58.3533 61.2167 52.5842 60.8792 46.7613C60.5346 41.332 61.0479 34.9106 58.6078 29.74C58.3265 29.093 57.1381 29.0445 56.8498 29.74ZM30.1628 25.0547C30.2753 23.4049 33.1655 23.4912 33.3905 25.0547C35.3736 36.6035 35.9994 48.2817 36.7941 59.8737C37.1879 65.4702 37.5887 71.1152 38.0388 76.717C38.2708 79.58 38.4326 82.4052 38.5521 85.2681C38.6084 87.9208 39.0022 90.87 37.87 93.431C36.8503 95.647 32.0333 96.1214 31.3512 93.431C30.6761 90.7891 31.2387 87.9639 31.2387 85.2681C31.2949 82.4052 31.1262 79.58 31.0699 76.717C30.9011 71.1152 30.7324 65.4702 30.5003 59.8737C30.0503 48.3249 29.4244 36.6467 30.1628 25.0547Z" fill="#F14947"/>
<path d="M0.353481 204.104C10.4446 207.054 24.6706 210.617 42.0049 213.259C68.2418 217.211 88.6983 217.039 104.113 216.818C120.659 216.602 143.5 216.171 172.17 210.569C187.134 207.614 199.314 204.142 208.041 201.322C207.422 200.799 206.796 200.233 206.114 199.716C205.383 199.236 202.943 197.85 199.659 197.98C195.749 198.109 192.233 200.233 190.707 203.403C190.081 203.021 187.191 201.236 183.168 201.5C179.202 201.754 175.742 203.889 174.216 206.924C173.928 206.66 171.495 204.32 167.472 204.358C164.125 204.401 161.066 206.142 159.821 208.747C159.477 208.482 155.968 205.965 150.926 206.617C145.595 207.312 143.444 210.914 143.275 211.178C142.705 210.785 139.702 208.833 135.223 209.049C130.125 209.313 127.403 212.219 127.009 212.607C125.821 210.181 122.586 208.617 119.19 208.881C115.786 209.097 112.952 211.092 112.333 213.653C112.045 213.389 108.191 210.046 102.355 210.526C97.7698 210.914 95.1609 213.437 94.7108 213.874C94.4787 213.61 91.5885 210.353 86.3214 210.353C81.7857 210.353 79.008 212.742 78.6142 213.087C77.7071 210.353 74.6481 208.353 71.0195 208.137C67.5105 207.922 64.1632 209.313 62.5739 211.701C62.2926 211.308 59.9157 208.31 54.9862 207.749C49.6558 207.145 46.0273 209.83 45.6897 210.132C45.4084 209.701 43.5379 206.876 39.1709 205.965C33.9601 204.881 29.8815 207.528 29.6002 207.749C29.3681 207.312 27.5538 204.358 23.0814 203.36C18.0956 202.234 14.1224 204.493 13.7286 204.708C13.2153 202.584 11.2322 200.799 8.5178 200.104C5.62759 199.365 2.3928 199.98 0.240967 201.667C0.297224 202.492 0.353481 203.317 0.353481 204.104ZM0.465995 96.2993C2.62486 94.6495 5.85262 94.0834 8.68657 94.8652C11.3518 95.6038 13.2786 97.3831 13.7286 99.5559C14.1295 99.3348 18.0956 97.1674 23.0251 98.3374C27.4413 99.4211 29.1431 102.376 29.3681 102.812C29.6494 102.591 33.7351 100.03 38.8896 101.206C43.2003 102.16 45.0076 105.023 45.2397 105.46C45.5772 105.195 49.2621 102.51 54.5291 103.244C59.4024 103.896 61.6738 106.888 61.9551 107.325C63.6006 104.937 66.9971 103.594 70.4569 103.853C74.0785 104.155 77.025 106.198 77.8758 108.932C78.2767 108.587 81.0544 106.198 85.5831 106.285C90.8009 106.371 93.6349 109.714 93.8036 109.929C94.2537 109.455 96.9189 107.023 101.511 106.673C107.348 106.241 111.025 109.627 111.314 109.929C111.989 107.368 114.823 105.46 118.226 105.239C121.623 105.066 124.801 106.635 125.934 109.104C126.271 108.716 129.105 105.848 134.147 105.632C138.627 105.46 141.573 107.503 142.079 107.848C142.255 107.584 144.463 103.982 149.787 103.379C154.779 102.812 158.176 105.33 158.513 105.589C159.765 103.028 162.88 101.335 166.221 101.335C170.187 101.335 172.571 103.724 172.852 103.982C174.441 100.942 177.95 98.9035 181.867 98.6878C185.833 98.4668 188.667 100.289 189.286 100.726C190.875 97.5987 194.441 95.5176 198.294 95.4313C201.585 95.3882 203.906 96.7738 204.644 97.2537C205.27 97.7713 205.889 98.3374 206.515 98.8604C197.788 101.551 185.601 104.899 170.7 107.584C142.143 112.798 119.527 112.884 103.093 112.884C87.7982 112.884 67.5105 112.755 41.6111 108.409C24.4386 105.551 10.4446 101.766 0.529285 98.6393C0.465996 97.906 0.465995 97.0811 0.465995 96.2993Z" fill="#F14947"/>
<path d="M148.486 188.641C147.466 188.641 146.671 189.251 146.671 190.032C146.671 190.814 147.466 191.423 148.486 191.423C149.505 191.423 150.3 190.814 150.3 190.032C150.3 189.251 149.505 188.641 148.486 188.641ZM160.103 177.357C159.139 177.357 158.401 177.917 158.401 178.656C158.401 179.395 159.139 179.961 160.103 179.961C161.066 179.961 161.805 179.395 161.805 178.656C161.805 177.961 161.066 177.357 160.103 177.357ZM129.956 184.824C128.768 184.824 127.748 185.563 127.748 186.522C127.748 187.471 128.711 188.21 129.956 188.21C131.201 188.21 132.164 187.471 132.164 186.522C132.164 185.563 131.144 184.824 129.956 184.824ZM48.3549 190.647C46.7727 190.647 45.4647 191.639 45.4647 192.852C45.4647 194.071 46.7727 195.068 48.3549 195.068C49.9442 195.068 51.2452 194.071 51.2452 192.852C51.2452 191.639 49.9442 190.647 48.3549 190.647ZM178.52 186.522C177.613 186.522 176.931 187.078 176.931 187.73C176.931 188.426 177.669 188.949 178.52 188.949C179.427 188.949 180.109 188.383 180.109 187.73C180.109 187.078 179.371 186.522 178.52 186.522ZM104.169 201.581C102.812 201.581 101.736 202.406 101.736 203.452C101.736 204.493 102.812 205.318 104.169 205.318C105.533 205.318 106.609 204.493 106.609 203.452C106.609 202.406 105.533 201.581 104.169 201.581ZM79.2964 185.476C77.025 185.476 75.2177 186.862 75.2177 188.598C75.2177 190.334 77.025 191.731 79.2964 191.731C81.5607 191.731 83.375 190.334 83.375 188.598C83.375 186.862 81.5607 185.476 79.2964 185.476ZM51.2452 175.75C49.8247 175.75 48.6925 176.618 48.6925 177.702C48.6925 178.785 49.8247 179.659 51.2452 179.659C52.6586 179.659 53.7908 178.785 53.7908 177.702C53.8541 176.618 52.6586 175.75 51.2452 175.75ZM29.8815 184.387C28.3485 184.387 27.1038 185.342 27.1038 186.522C27.1038 187.687 28.3485 188.641 29.8815 188.641C31.4075 188.641 32.6592 187.687 32.6592 186.522C32.6592 185.342 31.4075 184.387 29.8815 184.387ZM150.75 130.854C149.73 130.854 148.943 131.463 148.943 132.251C148.943 133.027 149.73 133.636 150.75 133.636C151.777 133.636 152.564 133.027 152.564 132.251C152.564 131.463 151.713 130.854 150.75 130.854ZM162.311 115.445C161.347 115.445 160.616 116.006 160.616 116.744C160.616 117.488 161.347 118.049 162.311 118.049C163.274 118.049 164.013 117.488 164.013 116.744C164.013 116.006 163.274 115.445 162.311 115.445ZM134.717 119.305C133.528 119.305 132.509 120.044 132.509 121.004C132.509 121.958 133.472 122.697 134.717 122.697C135.961 122.697 136.925 121.958 136.925 121.004C136.925 120.044 135.905 119.305 134.717 119.305ZM50.563 132.854C48.9738 132.854 47.6728 133.852 47.6728 135.07C47.6728 136.283 48.9738 137.281 50.563 137.281C52.1523 137.281 53.4533 136.283 53.4533 135.07C53.5095 133.852 52.2086 132.854 50.563 132.854ZM180.728 128.73C179.821 128.73 179.146 129.296 179.146 129.943C179.146 130.638 179.884 131.167 180.728 131.167C181.635 131.167 182.317 130.595 182.317 129.943C182.317 129.296 181.579 128.73 180.728 128.73ZM106.609 134.892C105.252 134.892 104.169 135.723 104.169 136.763C104.169 137.804 105.252 138.629 106.609 138.629C107.966 138.629 109.042 137.804 109.042 136.763C109.042 135.723 107.966 134.892 106.609 134.892ZM90.0063 121.872C87.742 121.872 85.9277 123.257 85.9277 124.993C85.9277 126.73 87.742 128.126 90.0063 128.126C92.2707 128.126 94.085 126.73 94.085 124.993C94.085 123.257 92.2707 121.872 90.0063 121.872ZM53.5095 117.963C52.096 117.963 50.9639 118.831 50.9639 119.915C50.9639 121.004 52.096 121.872 53.5095 121.872C54.93 121.872 56.0622 121.004 56.0622 119.915C56.0622 118.831 54.93 117.963 53.5095 117.963ZM34.8673 128.73C34.8673 129.9 33.6226 130.854 32.0896 130.854C30.5636 130.854 29.3119 129.9 29.3119 128.73C29.3119 127.554 30.5636 126.606 32.0896 126.606C33.6789 126.606 34.8673 127.554 34.8673 128.73Z" fill="#F14947"/>
<path d="M177.669 195.111C176.312 195.111 175.236 195.936 175.236 196.977C175.236 198.028 176.312 198.848 177.669 198.848C179.033 198.848 180.109 198.028 180.109 196.977C180.109 195.936 179.033 195.111 177.669 195.111ZM117.432 193.505C116.525 193.505 115.73 194.071 115.73 194.809C115.73 195.505 116.468 196.109 117.432 196.109C118.339 196.109 119.133 195.548 119.133 194.809C119.133 194.071 118.339 193.505 117.432 193.505ZM69.4373 175.534C68.2981 175.534 67.3909 176.224 67.3909 177.092C67.3909 177.961 68.2981 178.656 69.4373 178.656C70.5695 178.656 71.4766 177.961 71.4766 177.092C71.4766 176.224 70.5695 175.534 69.4373 175.534ZM9.13664 165.247C7.5544 165.247 6.30268 166.196 6.30268 167.42C6.30268 168.628 7.5544 169.587 9.13664 169.587C10.7259 169.587 11.9706 168.628 11.9706 167.42C11.9706 166.196 10.6696 165.247 9.13664 165.247ZM9.13664 188.949C7.5544 188.949 6.30268 189.903 6.30268 191.116C6.30268 192.335 7.5544 193.289 9.13664 193.289C10.7259 193.289 11.9706 192.335 11.9706 191.116C11.9214 189.946 10.6696 188.949 9.13664 188.949ZM185.489 176.489C183.224 176.489 181.354 177.917 181.354 179.659C181.354 181.395 183.224 182.829 185.489 182.829C187.76 182.829 189.624 181.395 189.624 179.659C189.624 177.917 187.76 176.489 185.489 176.489ZM179.877 137.324C178.52 137.324 177.444 138.149 177.444 139.195C177.444 140.236 178.52 141.06 179.877 141.06C181.241 141.06 182.317 140.236 182.317 139.195C182.317 138.149 181.241 137.324 179.877 137.324ZM119.64 135.723C118.733 135.723 117.945 136.283 117.945 137.028C117.945 137.761 118.676 138.327 119.64 138.327C120.547 138.327 121.342 137.761 121.342 137.028C121.342 136.283 120.547 135.723 119.64 135.723ZM71.6454 117.747C70.5132 117.747 69.606 118.437 69.606 119.305C69.606 120.179 70.5132 120.869 71.6454 120.869C72.7775 120.869 73.6847 120.179 73.6847 119.305C73.6847 118.437 72.7775 117.747 71.6454 117.747ZM11.3518 107.455C9.7625 107.455 8.51781 108.409 8.51781 109.627C8.51781 110.841 9.7625 111.795 11.3518 111.795C12.934 111.795 14.1857 110.841 14.1857 109.627C14.1857 108.409 12.8777 107.455 11.3518 107.455ZM11.3518 131.167C9.7625 131.167 8.51781 132.116 8.51781 133.334C8.51781 134.547 9.7625 135.507 11.3518 135.507C12.934 135.507 14.1857 134.547 14.1857 133.334C14.1857 132.116 12.8777 131.167 11.3518 131.167ZM190.531 114.62C190.531 116.356 188.66 117.79 186.396 117.79C184.132 117.79 182.261 116.356 182.261 114.62C182.261 112.884 184.132 111.45 186.396 111.45C188.66 111.45 190.531 112.841 190.531 114.62Z" fill="#456EB8"/>
<path d="M196.03 191.38C194.673 191.38 193.597 192.205 193.597 193.251C193.597 194.286 194.673 195.111 196.03 195.111C197.387 195.111 198.47 194.286 198.47 193.251C198.47 192.248 197.387 191.38 196.03 191.38ZM38.8333 179.659C38.0387 179.659 37.4199 180.133 37.4199 180.743C37.4199 181.352 38.0387 181.826 38.8333 181.826C39.628 181.826 40.2468 181.352 40.2468 180.743C40.2468 180.133 39.628 179.659 38.8333 179.659ZM33.1092 167.458C32.0332 167.458 31.1261 168.153 31.1261 168.978C31.1261 169.803 32.0332 170.493 33.1092 170.493C34.1851 170.493 35.0922 169.803 35.0922 168.978C35.0922 168.153 34.1851 167.458 33.1092 167.458ZM164.013 188.339C162.367 188.339 161.01 189.38 161.01 190.647C161.01 191.898 162.367 192.944 164.013 192.944C165.658 192.944 167.015 191.898 167.015 190.647C167.015 189.38 165.714 188.339 164.013 188.339ZM148.486 198.244C146.615 198.244 145.082 199.408 145.082 200.848C145.082 202.277 146.615 203.452 148.486 203.452C150.356 203.452 151.882 202.277 151.882 200.848C151.882 199.408 150.356 198.244 148.486 198.244ZM106.609 185.218C104.169 185.218 102.13 186.738 102.13 188.641C102.13 190.555 104.113 192.076 106.609 192.076C109.042 192.076 111.082 190.555 111.082 188.641C111.082 186.738 109.099 185.218 106.609 185.218ZM198.238 133.593C196.881 133.593 195.805 134.423 195.805 135.459C195.805 136.499 196.881 137.324 198.238 137.324C199.602 137.324 200.678 136.499 200.678 135.459C200.678 134.461 199.602 133.593 198.238 133.593ZM41.0414 121.872C40.2468 121.872 39.628 122.346 39.628 122.955C39.628 123.565 40.2468 124.039 41.0414 124.039C41.8361 124.039 42.4619 123.565 42.4619 122.955C42.4619 122.346 41.8361 121.872 41.0414 121.872ZM35.3173 109.676C34.2413 109.676 33.3342 110.366 33.3342 111.191C33.3342 112.016 34.2413 112.711 35.3173 112.711C36.3932 112.711 37.3003 112.016 37.3003 111.191C37.3003 110.366 36.3932 109.676 35.3173 109.676ZM169.167 119.915C167.522 119.915 166.164 120.961 166.164 122.217C166.164 123.478 167.522 124.519 169.167 124.519C170.813 124.519 172.17 123.478 172.17 122.217C172.17 120.961 170.813 119.915 169.167 119.915ZM160.609 132.854C158.738 132.854 157.212 134.024 157.212 135.459C157.212 136.893 158.738 138.063 160.609 138.063C162.48 138.063 164.013 136.893 164.013 135.459C164.013 134.024 162.536 132.854 160.609 132.854ZM117.938 119.915C115.505 119.915 113.465 121.435 113.465 123.349C113.465 125.215 115.449 126.778 117.938 126.778C120.378 126.778 122.417 125.258 122.417 123.349C122.417 121.435 120.434 119.915 117.938 119.915ZM167.979 26.9203C166.959 32.5168 167.184 38.2049 166.734 43.8499C166.333 49.5812 166.052 55.3125 165.883 61.0437C165.482 72.6788 164.976 84.357 164.181 95.9975C163.956 99.378 170.813 99.378 171.038 95.9975C171.776 84.357 172.339 72.7219 172.571 61.0437C172.683 55.3125 172.571 49.5812 172.226 43.8499C171.889 38.2049 172.001 32.4736 170.813 26.9203C170.588 25.8797 168.204 25.8312 167.979 26.9203ZM145.595 30.0043C144.519 35.2126 144.519 40.5503 144.119 45.8017C143.725 51.5761 143.268 57.3074 142.874 63.0818C142.079 74.4149 141.397 85.748 140.434 97.0812C140.152 100.597 147.297 100.553 147.522 97.0812C148.373 85.7912 149.048 74.4149 149.104 63.0818C149.104 57.523 148.992 51.9265 148.767 46.3678C148.542 40.9438 148.598 35.3851 147.466 30.0043C147.353 29.2602 145.764 29.2602 145.595 30.0043ZM122.249 28.9152C121.623 31.3899 121.96 33.8647 121.96 36.3825C122.017 39.1592 121.792 41.9844 121.623 44.7665C121.285 49.9748 121.053 55.1831 120.603 60.3967C119.696 71.1152 117.882 82.0117 117.882 92.7409C117.882 95.5985 124.119 96.4719 124.682 93.4311C126.552 82.7934 126.271 71.6328 125.926 60.9143C125.758 55.5281 125.701 50.0988 125.364 44.718C125.195 42.1138 124.963 39.5097 124.907 36.9055C124.851 34.2151 125.139 31.5193 124.344 28.8721C124.007 28.1765 122.474 28.1334 122.249 28.9152ZM88.7545 28.6133C88.7545 31.3899 89.5491 34.1235 89.943 36.8624C90.3438 39.6391 90.4 42.3726 90.5126 45.1493C90.6813 50.3198 91.2509 55.485 91.6447 60.6124C92.4394 71.2878 92.5519 82.0548 93.459 92.7409C93.7966 96.4719 100.997 96.5582 101.11 92.7409C101.448 81.9254 100.147 70.8133 98.7894 60.0409C98.1073 54.8757 97.4814 49.6675 96.2367 44.5508C94.9358 39.1592 94.76 33.4333 92.8894 28.1765C92.3269 26.3973 88.7545 26.7478 88.7545 28.6133ZM66.9971 19.3181C65.9211 24.9631 66.5962 30.7807 66.6525 36.4688C66.7087 42.2864 66.54 48.0608 66.4275 53.8837C66.2587 59.6958 66.0337 65.4702 65.7453 71.2878C65.5766 74.2855 65.4078 77.2778 65.239 80.2756C65.0703 83.0954 64.5569 86.0122 65.239 88.832C65.8086 91.4362 70.8507 91.0857 71.6453 88.832C72.665 86.1362 72.4329 83.0954 72.5454 80.2756C72.665 77.2778 72.7775 74.2855 72.8337 71.2878C72.9463 65.4702 72.9463 59.6958 72.8337 53.8837C72.7212 48.0608 72.3767 42.2864 72.0954 36.4688C71.8141 30.7807 71.9266 24.8337 70.1686 19.3181C69.7185 18.2344 67.2783 18.105 66.9971 19.3181ZM42.3424 20.4504C41.6673 32.8672 42.2861 45.1978 43.5941 57.6147C44.2129 63.691 45.0075 69.8105 45.8584 75.8922C46.2522 78.8468 46.7093 81.796 47.1594 84.7452C47.6165 87.5327 47.3352 91.2583 49.487 93.609C51.013 95.2534 54.072 94.9946 54.9229 93.0375C56.1183 90.4333 54.6978 87.2199 54.2478 84.5295C53.6782 81.4509 53.1648 78.4101 52.6585 75.3261C51.6389 69.0772 50.6755 62.7852 49.7683 56.5256C48.0665 44.416 46.3647 32.3011 44.1567 20.2778C44.0441 19.4098 42.3986 19.6686 42.3424 20.4504ZM14.3474 30.4787C14.5232 29.0446 17.5259 28.4839 17.8635 30.1283C18.9394 35.4282 19.2207 40.7659 19.959 46.109C20.6974 51.3173 21.4358 56.4878 22.0546 61.6961C23.3626 72.4577 25.5707 83.0954 27.16 93.8624C24.8323 93.1237 22.4555 92.3905 20.1349 91.6572C20.5287 91.4362 20.8662 91.2205 21.267 90.9563C23.9814 89.3496 28.2359 90.7407 27.3287 93.6467C27.2162 93.9972 27.0967 94.3422 26.9842 94.6927C26.084 97.5556 19.6778 97.8144 19.0519 94.6927C16.9563 84.1845 16.0492 73.4174 14.9733 62.823C14.4669 57.6147 14.2349 52.4441 14.1224 47.2358C14.1224 41.634 13.7286 35.9944 14.3474 30.4787Z" fill="#3BA27A"/>
<path d="M207.021 141.368C197.275 143.492 187.247 144.878 177.163 145.837C145.427 148.873 113.128 149.18 81.2794 147.352C65.7524 146.484 50.2254 145.056 34.8672 143.055C23.3626 141.583 11.6893 139.971 0.297211 137.804V135.674C13.5598 137.976 26.8154 140.322 40.3664 141.972C71.5328 145.746 103.206 147.309 134.773 146.662C158.802 146.145 183.618 145.012 206.965 140.106C206.965 140.537 207.021 140.931 207.021 141.368ZM207.31 160.163C193.252 162.336 178.97 163.894 164.695 164.983C133.296 167.371 101.511 167.328 70.1124 164.854C54.7541 163.678 39.5155 161.899 24.3823 159.554C16.3938 158.341 8.28573 157.036 0.297211 155.478V153.348C10.0438 155.3 19.7903 157.122 29.7127 158.599C88.4733 167.199 148.486 166.848 207.31 159.079V160.163ZM207.077 147.18C181.523 153.526 153.985 154.868 127.347 155.478C95.7867 156.168 64.1069 154.561 32.9404 150.787C21.9492 149.439 11.1197 147.665 0.353468 145.794V147.962C9.36868 149.482 18.4894 150.744 27.5046 151.871C42.8558 153.822 58.3827 155.3 73.9097 156.168C105.758 157.947 138.057 157.688 169.793 154.647C182.486 153.434 195.123 151.612 207.197 148.355C207.141 147.962 207.141 147.573 207.077 147.18ZM4.77669 177.092C3.86954 177.092 3.13117 177.659 3.13117 178.354C3.13117 179.05 3.86954 179.61 4.77669 179.61C5.68383 179.61 6.41518 179.05 6.41518 178.354C6.41518 177.659 5.68383 177.092 4.77669 177.092ZM37.0753 193.289C35.9432 193.289 35.036 193.984 35.036 194.852C35.036 195.72 35.9432 196.416 37.0753 196.416C38.2075 196.416 39.1147 195.72 39.1147 194.852C39.1147 193.984 38.2075 193.289 37.0753 193.289ZM58.8961 184.387C57.7006 184.387 56.7372 185.126 56.7372 186.037C56.7372 186.954 57.7006 187.687 58.8961 187.687C60.0845 187.687 61.0479 186.954 61.0479 186.037C61.0479 185.126 60.0845 184.387 58.8961 184.387ZM97.3127 182.22C96.5813 182.22 96.0117 182.651 96.0117 183.217C96.0117 183.783 96.5813 184.215 97.3127 184.215C98.0511 184.215 98.6207 183.783 98.6207 183.217C98.6207 182.651 98.0511 182.22 97.3127 182.22ZM90.0063 196.459C88.3045 196.459 86.891 197.5 86.891 198.848C86.891 200.147 88.2483 201.236 90.0063 201.236C91.7081 201.236 93.1215 200.196 93.1215 198.848C93.1215 197.5 91.7081 196.459 90.0063 196.459ZM15.4304 180.009C14.5795 180.009 13.8974 180.527 13.8974 181.174C13.8974 181.826 14.5795 182.349 15.4304 182.349C16.2813 182.349 16.9564 181.826 16.9564 181.174C16.9564 180.527 16.2813 180.009 15.4304 180.009ZM198.238 169.539C196.656 169.539 195.348 170.536 195.348 171.76C195.348 172.968 196.656 173.971 198.238 173.971C199.827 173.971 201.128 172.968 201.128 171.76C201.128 170.536 199.884 169.539 198.238 169.539ZM195.404 180.441C194.384 180.441 193.597 181.045 193.597 181.826C193.597 182.613 194.384 183.217 195.404 183.217C196.424 183.217 197.218 182.613 197.218 181.826C197.218 181.045 196.424 180.441 195.404 180.441ZM144.069 180.441C142.079 180.441 140.441 181.697 140.441 183.217C140.441 184.738 142.079 185.994 144.069 185.994C146.052 185.994 147.691 184.738 147.691 183.217C147.635 181.697 146.052 180.441 144.069 180.441ZM132.452 198.896C131.032 198.896 129.9 199.764 129.9 200.848C129.9 201.932 131.032 202.8 132.452 202.8C133.866 202.8 134.998 201.932 134.998 200.848C134.998 199.764 133.866 198.896 132.452 198.896ZM71.0195 196.804C69.5498 196.804 68.3543 197.715 68.3543 198.848C68.3543 199.98 69.5498 200.886 71.0195 200.886C72.4962 200.886 73.6847 199.98 73.6847 198.848C73.6847 197.715 72.4962 196.804 71.0195 196.804ZM15.2054 170.714C13.3911 170.714 11.9143 171.841 11.9143 173.232C11.9143 174.618 13.3911 175.75 15.2054 175.75C17.0197 175.75 18.4894 174.618 18.4894 173.232C18.4894 171.841 17.0197 170.714 15.2054 170.714ZM6.98478 119.305C6.07763 119.305 5.34629 119.877 5.34629 120.567C5.34629 121.262 6.07763 121.829 6.98478 121.829C7.89193 121.829 8.6303 121.262 8.6303 120.567C8.6303 119.877 7.89193 119.305 6.98478 119.305ZM39.2834 135.507C38.1512 135.507 37.2441 136.197 37.2441 137.065C37.2441 137.933 38.1512 138.629 39.2834 138.629C40.4226 138.629 41.3298 137.933 41.3298 137.065C41.3298 136.197 40.4226 135.507 39.2834 135.507ZM61.1042 126.606C59.9157 126.606 58.9523 127.339 58.9523 128.25C58.9523 129.161 59.9157 129.9 61.1042 129.9C62.2926 129.9 63.256 129.161 63.256 128.25C63.256 127.339 62.2926 126.606 61.1042 126.606ZM103.494 119.305C102.756 119.305 102.186 119.742 102.186 120.314C102.186 120.869 102.756 121.306 103.494 121.306C104.225 121.306 104.795 120.869 104.795 120.314C104.795 119.785 104.225 119.305 103.494 119.305ZM87.1161 133.334C85.4143 133.334 84.0008 134.375 84.0008 135.723C84.0008 137.065 85.358 138.111 87.1161 138.111C88.8179 138.111 90.2313 137.065 90.2313 135.723C90.2313 134.375 88.8179 133.334 87.1161 133.334ZM17.6385 122.217C16.7876 122.217 16.1125 122.74 16.1125 123.387C16.1125 124.039 16.7876 124.562 17.6385 124.562C18.4894 124.562 19.1715 124.039 19.1715 123.387C19.1715 122.74 18.4894 122.217 17.6385 122.217ZM200.566 105.195C198.976 105.195 197.675 106.198 197.675 107.411C197.675 108.63 198.976 109.627 200.566 109.627C202.148 109.627 203.456 108.63 203.456 107.411C203.456 106.198 202.148 105.195 200.566 105.195ZM197.675 122.697C196.656 122.697 195.861 123.3 195.861 124.082C195.861 124.869 196.656 125.473 197.675 125.473C198.695 125.473 199.49 124.869 199.49 124.082C199.434 123.3 198.639 122.697 197.675 122.697ZM148.943 119.915C146.953 119.915 145.314 121.182 145.314 122.697C145.314 124.217 146.953 125.473 148.943 125.473C150.926 125.473 152.564 124.217 152.564 122.697C152.508 121.133 150.926 119.915 148.943 119.915ZM135.961 132.854C134.548 132.854 133.416 133.722 133.416 134.806C133.416 135.895 134.548 136.763 135.961 136.763C137.382 136.763 138.514 135.895 138.514 134.806C138.514 133.722 137.382 132.854 135.961 132.854ZM71.0195 130.854C69.5498 130.854 68.3543 131.771 68.3543 132.903C68.3543 134.024 69.5498 134.936 71.0195 134.936C72.4962 134.936 73.6847 134.024 73.6847 132.903C73.6847 131.771 72.4962 130.854 71.0195 130.854ZM20.6975 115.445C20.6975 116.836 19.2277 117.963 17.4135 117.963C15.5992 117.963 14.1294 116.836 14.1294 115.445C14.1294 114.054 15.5992 112.932 17.4135 112.932C19.2277 112.932 20.6975 114.054 20.6975 115.445Z" fill="#FAE0C9"/>
<path d="M190.763 11.813C192.007 7.20857 187.303 3.77951 186.965 3.56385C186.677 4.4319 186.227 5.7798 185.432 7.33797C183.731 10.6808 182.148 11.7699 182.542 13.328C182.767 14.2015 183.674 15.4146 186.965 16.5846C187.873 16.0238 190.081 14.4603 190.763 11.813ZM172.346 19.496C173.196 16.2826 169.905 13.851 169.68 13.7216C169.512 14.3309 169.167 15.2852 168.604 16.3689C167.416 18.7142 166.277 19.4529 166.565 20.5366C166.734 21.1459 167.36 22.0139 169.68 22.7957C170.306 22.4506 171.832 21.3184 172.346 19.496ZM156.53 8.24915C157.782 3.65011 153.078 0.221055 152.733 0C152.452 0.868047 152.002 2.21595 151.207 3.77951C149.505 7.1223 147.916 8.20602 148.317 9.76958C148.542 10.6376 149.449 11.8561 152.733 13.0261C153.64 12.46 155.855 10.8587 156.53 8.24915ZM148.542 20.6229C149.561 16.8919 145.764 14.1583 145.483 13.9804C145.258 14.6759 144.913 15.765 144.238 17.0213C142.874 19.7117 141.573 20.5797 141.91 21.8414C142.079 22.5369 142.818 23.5343 145.483 24.4455C146.221 23.9657 147.979 22.7094 148.542 20.6229ZM131.313 13.9373C134.147 12.7673 134.885 11.5488 135.11 10.6808C135.455 9.1172 134.091 8.03348 132.621 4.69069C131.939 3.12713 131.545 1.78462 131.313 0.916572C131.032 1.13224 127.066 4.56129 128.085 9.16572C128.711 11.813 130.582 13.4143 131.313 13.9373ZM125.42 21.4909C126.327 18.0187 122.818 15.4577 122.586 15.2852C122.417 15.9376 122.024 16.935 121.454 18.105C120.153 20.6229 118.965 21.4047 119.302 22.58C119.471 23.2324 120.153 24.1436 122.642 25.0116C123.212 24.6612 124.914 23.4481 125.42 21.4909ZM110.006 11.813C111.257 7.20857 106.553 3.77951 106.208 3.56385C105.927 4.4319 105.477 5.7798 104.682 7.33797C102.981 10.6808 101.398 11.7699 101.792 13.328C102.017 14.2015 102.924 15.4146 106.208 16.5846C107.115 16.0238 109.331 14.4603 110.006 11.813ZM93.7473 19.1941C94.5982 15.9376 91.3072 13.4628 91.0821 13.328C90.9134 13.9373 90.5688 14.897 90.0062 16.0238C88.8178 18.4123 87.6786 19.151 87.9669 20.2778C88.1357 20.9302 88.7545 21.7551 91.0821 22.58C91.708 22.1433 93.234 21.0165 93.7473 19.1941ZM83.825 12.5463C84.7321 9.16572 81.2793 6.64784 81.0543 6.51305C80.8785 7.16544 80.5409 8.11975 79.9151 9.29512C78.6704 11.7267 77.482 12.5463 77.7632 13.6785C77.932 14.3309 78.6141 15.1989 80.991 16.067C81.6731 15.6302 83.3186 14.4603 83.825 12.5463ZM72.4399 9.94211C73.6846 5.34308 68.9801 1.91402 68.6425 1.69296C68.3542 2.56101 67.9042 3.90891 67.1095 5.47247C65.4078 8.81527 63.8255 9.90437 64.2193 11.4625C64.4444 12.3306 65.3515 13.5491 68.6425 14.7191C69.4934 14.1152 71.7015 12.5463 72.4399 9.94211ZM59.6273 21.2321C60.3095 18.628 57.7005 16.7194 57.5318 16.5846C57.363 17.0644 57.138 17.8462 56.6879 18.7142C55.7175 20.5797 54.8174 21.189 55.0424 22.057C55.1549 22.58 55.6612 23.2324 57.5318 23.8794C57.9888 23.5775 59.2335 22.6663 59.6273 21.2321ZM46.203 12.8967C47.1664 9.33825 43.5378 6.64784 43.2495 6.51305C43.0244 7.20857 42.6869 8.20602 42.061 9.42452C40.7601 12.0287 39.5154 12.8536 39.7967 14.0667C39.9655 14.7622 40.6476 15.6734 43.2002 16.5846C43.9316 16.1532 45.6896 14.9347 46.203 12.8967ZM30.2189 18.5417C33.0529 17.3663 33.8475 16.1532 34.0163 15.2852C34.3538 13.7216 32.9966 12.6379 31.5199 9.29512C30.8448 7.73155 30.4439 6.38366 30.2189 5.51561C29.9376 5.73127 25.9152 9.16572 26.9912 13.7648C27.617 16.412 29.5368 18.0187 30.2189 18.5417ZM17.8705 20.3209C19.1152 15.7165 14.4106 12.2875 14.0661 12.0718C13.7848 12.9398 13.3347 14.2877 12.5401 15.8513C10.8383 19.1941 9.24905 20.2778 9.64988 21.8414C9.87491 22.7094 10.7821 23.9225 14.0661 25.0979C14.917 24.5318 17.1883 22.9251 17.8705 20.3209Z" fill="#F9B53F"/>
</svg>
