<svg width="155" height="139" viewBox="0 0 155 139" fill="none" xmlns="http://www.w3.org/2000/svg">
<path d="M55.5388 62.1517C62.0045 65.9705 68.716 70.9898 75.108 77.5252C88.1418 90.9564 94.2141 105.236 97.0782 113.615C93.4397 112.66 88.4245 111.14 82.5939 108.702C73.6944 104.92 62.9223 98.9464 52.5395 89.4363C36.7153 75.0176 29.0491 59.2549 25.554 50.5233C31.4502 51.7607 42.9639 54.7313 55.5388 62.1517Z" fill="#F9B53F"/>
<path d="M150.586 112.202C151.115 110.362 150.058 108.42 148.222 107.854L133.988 103.683C132.148 103.15 130.206 104.212 129.64 106.051C129.112 107.887 130.173 109.833 132.009 110.399L146.243 114.57C146.558 114.672 146.915 114.709 147.23 114.709C148.75 114.709 150.127 113.722 150.586 112.202ZM122.474 26.9838L129.149 9.5248C129.821 7.72194 128.935 5.70602 127.133 5.03405C125.334 4.3293 123.318 5.24711 122.65 7.04997L115.971 24.509C115.303 26.3118 116.184 28.3278 117.987 28.9997C118.409 29.139 118.835 29.2456 119.221 29.2456C120.601 29.2456 121.941 28.3974 122.474 26.9838ZM44.5905 23.3453C46.2172 22.3169 46.6761 20.1248 45.6517 18.535L38.1289 6.83691C37.1046 5.21024 34.9124 4.75133 33.3227 5.77978C31.7001 6.80413 31.2412 8.99214 32.2655 10.5819L39.7884 22.2841C40.4562 23.3085 41.5871 23.8739 42.718 23.8739C43.3531 23.9067 43.9882 23.7305 44.5905 23.3453ZM65.6757 99.6512C65.0037 99.6512 64.3359 99.475 63.7336 99.053C62.1438 97.9917 61.7217 95.7996 62.7789 94.2098C65.4299 90.2518 71.0802 83.2534 78.8857 80.9916C88.1418 78.3406 96.7955 80.8482 105.166 83.2534C107.424 83.8885 109.547 84.5236 111.698 85.0194C116.397 86.1503 121.343 87.0353 125.404 85.7282C129.821 84.3146 133.598 80.5655 136.704 77.0663C137.978 75.6199 140.203 75.5134 141.617 76.7836C143.063 78.0579 143.17 80.2828 141.9 81.6964C138.155 85.9044 133.529 90.4648 127.522 92.3701C121.835 94.173 115.762 93.1486 110.075 91.7719C107.781 91.2065 105.482 90.5673 103.257 89.8953C95.4884 87.6704 88.1745 85.5479 80.8279 87.6335C76.6609 88.8382 72.2111 92.6201 68.5726 98.0245C67.9006 99.0858 66.8066 99.6512 65.6757 99.6512Z" fill="#F14947"/>
<path d="M116.221 130.119C118.094 129.697 119.294 127.821 118.868 125.948L116.926 117.36C116.504 115.488 114.631 114.32 112.759 114.709C110.886 115.135 109.686 117.008 110.108 118.88L112.054 127.468C112.406 129.095 113.853 130.189 115.443 130.189C115.688 130.226 115.971 130.189 116.221 130.119ZM153.659 68.3389C154.896 66.8515 154.72 64.6635 153.237 63.4261C150.869 61.4102 146.878 58.8657 141.334 58.0175C135.012 57.0259 129.853 58.8288 127.346 59.9966C125.616 60.8078 124.838 62.8934 125.649 64.6266C126.465 66.3598 128.546 67.1342 130.279 66.3229C132.078 65.4748 135.753 64.2005 140.273 64.9093C144.194 65.5117 147.054 67.3473 148.75 68.7978C149.385 69.3632 150.197 69.609 150.975 69.609C152 69.609 152.987 69.187 153.659 68.3389ZM52.5394 92.9355C51.4781 92.9355 50.4538 92.4766 49.7818 91.5957C48.6181 90.0756 48.9009 87.8834 50.4169 86.7157C57.3415 81.344 61.7216 75.4069 63.3442 69.0436C65.2864 61.4798 63.2049 54.7642 60.98 47.6593C58.5789 39.9193 55.8214 31.155 58.5789 20.8008C60.2384 14.4704 63.6269 8.60698 68.6094 3.3746C69.9492 1.99378 72.1413 1.92412 73.518 3.26807C74.8948 4.61201 74.9644 6.80412 73.6246 8.18085C69.4575 12.5651 66.6303 17.4082 65.2864 22.5668C63.0615 30.9788 65.2864 38.0837 67.6178 45.5737C70.023 53.3178 72.5306 61.3036 70.0926 70.7768C68.0439 78.693 62.8525 85.9044 54.6577 92.2308C54.0226 92.7266 53.281 92.9355 52.5394 92.9355Z" fill="#446DB7"/>
<path d="M28.9425 40.415C29.3686 38.5425 28.2009 36.67 26.3284 36.2439L15.4498 33.7691C13.5772 33.347 11.7088 34.5107 11.2827 36.3873C10.8607 38.2598 12.0243 40.1323 13.8968 40.5585L24.7754 43.0292C25.0213 43.1029 25.304 43.1029 25.5539 43.1029C27.1437 43.1029 28.5901 42.0048 28.9425 40.415ZM52.5394 89.4732C47.9831 85.3389 44.1316 81.0981 40.8454 76.9597C38.092 73.4606 35.7237 70.0351 33.7487 66.8187C29.8275 60.4185 27.2134 54.6945 25.5539 50.593L7.57456 96.2954L3.05513 107.78L-24 176.703L-12.3839 170.659L-2.45588 165.5L47.5939 139.416L58.5421 133.725L97.0781 113.648C87.8221 111.21 69.7403 105.129 52.5394 89.4732ZM90.7886 29.2455C89.6946 29.2455 88.6006 28.717 87.9287 27.7254C86.8346 26.1356 87.2239 23.9804 88.8096 22.8864C90.297 21.862 93.8617 18.9283 94.9229 13.7656C95.7342 9.80748 94.6402 6.52136 93.8986 4.8947C93.1201 3.12872 93.8986 1.07592 95.6645 0.301512C97.4305 -0.476994 99.4792 0.301512 100.254 2.06749C101.315 4.43579 102.942 9.31169 101.737 15.1792C100.184 22.8126 94.9557 27.1272 92.7677 28.6473C92.1654 29.0325 91.4606 29.2455 90.7886 29.2455Z" fill="#3BA27A"/>
<path d="M52.5395 129.271C49.0771 129.271 46.2499 132.062 46.2499 135.561C46.2499 137.011 46.7457 138.355 47.557 139.416L58.5053 133.725C57.7309 131.144 55.3298 129.271 52.5395 129.271ZM7.57459 96.2954L3.05516 107.78C4.00985 108.383 5.10386 108.702 6.3044 108.702C9.7667 108.702 12.5898 105.908 12.5898 102.409C12.5898 99.4053 10.4346 96.8608 7.57459 96.2954ZM71.1171 109.444C67.6548 109.444 64.8276 112.271 64.8276 115.733C64.8276 119.2 67.6179 122.027 71.1171 122.027C74.5794 122.027 77.4025 119.233 77.4025 115.733C77.4025 112.271 74.6121 109.444 71.1171 109.444ZM20.1126 123.015C16.6503 123.015 13.8272 125.809 13.8272 129.308C13.8272 132.77 16.6175 135.598 20.1126 135.598C23.6118 135.598 26.4021 132.807 26.4021 129.308C26.4021 125.809 23.5749 123.015 20.1126 123.015ZM-8.74535 159.281C-12.2036 159.281 -15.0308 162.071 -15.0308 165.57C-15.0308 167.693 -14.0064 169.528 -12.4166 170.696L-2.45584 165.5C-2.49272 162.034 -5.28305 159.281 -8.74535 159.281ZM33.7488 66.7818C31.7001 67.8062 30.2865 69.9286 30.2865 72.4035C30.2865 75.8658 33.0768 78.693 36.5719 78.693C38.2313 78.693 39.7883 78.021 40.8824 76.9598C38.092 73.4606 35.7237 70.0352 33.7488 66.7818ZM137.52 38.9318C132.82 37.0921 123.248 34.5107 112.124 37.551C97.8198 41.4763 90.3298 52.0435 87.7853 56.4277C86.7978 58.0872 87.3632 60.2096 89.0227 61.1971C89.5881 61.5167 90.1905 61.6929 90.7887 61.6929C91.9892 61.6929 93.157 61.0578 93.7921 59.9597C95.9104 56.3212 102.126 47.5568 113.959 44.3035C123.142 41.759 131.091 43.9511 134.975 45.4344C136.778 46.1432 138.79 45.2213 139.494 43.4553C140.203 41.6894 139.318 39.6366 137.52 38.9318Z" fill="#F9B53F"/>
<path d="M115.832 127.538C116.078 127.468 116.221 127.255 116.147 127.01L113.996 117.819C113.923 117.573 113.714 117.43 113.464 117.504C113.218 117.573 113.078 117.786 113.148 118.032L115.303 127.223C115.336 127.432 115.512 127.575 115.725 127.575C115.762 127.538 115.795 127.538 115.832 127.538ZM43.0376 21.0098C43.2465 20.8705 43.3203 20.6247 43.1769 20.4116L35.5475 8.28742C35.4082 8.07436 35.1583 8.04158 34.9493 8.14811C34.7362 8.28742 34.6666 8.53326 34.8059 8.74633L42.4352 20.8705C42.5049 21.0098 42.6483 21.0836 42.7876 21.0836C42.8941 21.0467 42.9638 21.0467 43.0376 21.0098ZM90.3297 57.9479C92.5546 54.3053 99.0531 45.4344 111.206 41.546C122.966 37.7313 133.209 40.874 137.061 42.3614C137.27 42.431 137.519 42.3245 137.626 42.1115C137.728 41.8984 137.589 41.6157 137.376 41.546C132.504 39.6366 122.543 36.9528 110.956 40.6978C98.5614 44.6928 91.8826 53.7767 89.5881 57.4849C89.4488 57.698 89.5184 57.9479 89.7315 58.0872C89.8012 58.1241 89.8708 58.1569 89.9405 58.1569C90.0839 58.1569 90.2232 58.0872 90.3297 57.9479ZM55.4322 92.0178C55.5756 91.8416 55.5756 91.5589 55.3994 91.4195C48.8272 85.7283 42.931 79.2585 37.9158 72.1905C34.2077 66.995 30.9584 61.4102 28.2377 55.6124C28.1312 55.4034 27.8854 55.2969 27.6723 55.4034C27.4592 55.5058 27.3527 55.7558 27.4592 55.9689C30.2168 61.7994 33.466 67.417 37.207 72.6862C42.259 79.8239 48.1921 86.3633 54.834 92.0546C54.9036 92.1243 55.0101 92.1612 55.1167 92.1612C55.2232 92.1612 55.3625 92.1243 55.4322 92.0178ZM66.3477 119.835C66.5607 119.692 66.5935 119.409 66.4542 119.233C64.5817 116.619 65.1102 112.943 67.6547 111.071C68.8921 110.149 70.5147 109.759 72.1045 110.042C73.7312 110.325 75.1407 111.247 76.0626 112.624C76.2019 112.837 76.4477 112.874 76.6608 112.73C76.8739 112.591 76.9067 112.341 76.7673 112.128C75.7061 110.538 74.1163 109.514 72.2479 109.194C70.4451 108.879 68.5725 109.301 67.1262 110.362C64.2293 112.517 63.5942 116.725 65.7453 119.728C65.8191 119.835 65.9584 119.905 66.1018 119.905C66.1715 119.905 66.278 119.868 66.3477 119.835ZM-14.5022 168.045C-14.2892 167.975 -14.1458 167.725 -14.2195 167.48C-15.0636 164.861 -14.0761 162.001 -11.8143 160.588C-9.76564 159.313 -7.08184 159.457 -5.13967 160.94C-4.96348 161.079 -4.68076 161.047 -4.53735 160.87C-4.39804 160.694 -4.43492 160.412 -4.61111 160.268C-6.86877 158.572 -9.94182 158.396 -12.2732 159.879C-14.8874 161.506 -16.0183 164.759 -15.0308 167.795C-14.957 167.975 -14.7809 168.115 -14.6047 168.115C-14.6047 168.045 -14.5719 168.045 -14.5022 168.045ZM20.1126 135.987C19.8668 135.987 19.6906 135.774 19.6906 135.561C19.6906 135.315 19.9036 135.139 20.1126 135.139C23.3291 135.139 25.9432 132.525 25.9432 129.308C25.9432 126.092 23.3291 123.473 20.1126 123.473C19.8668 123.473 19.6906 123.265 19.6906 123.051C19.6906 122.838 19.9036 122.625 20.1126 122.625C23.8248 122.625 26.8241 125.633 26.8241 129.341C26.8241 132.984 23.8248 135.987 20.1126 135.987Z" fill="#3A5471"/>
</svg>
