<svg width="453" height="160" viewBox="0 0 453 160" fill="none" xmlns="http://www.w3.org/2000/svg">
<path d="M226.812 72.4775C223.198 64.729 220.314 57.4284 217.981 50.7847C229.206 51.609 241.074 52.1428 253.526 52.2975C264.617 52.438 275.255 52.2572 285.378 51.8383C281.628 57.484 277.785 63.784 273.968 70.8146C272.002 74.4589 270.025 78.2733 268.125 82.2694C262.001 95.0411 257.599 106.985 254.409 117.45C247.49 108.628 239.929 97.6627 232.8 84.441C230.611 80.3608 228.603 76.3647 226.812 72.4775Z" fill="#3BA27A"/>
<path d="M336.668 70.6152C334.274 67.3367 331.875 64.098 329.471 60.8182L325.769 55.7851C324.034 53.42 322.306 51.086 320.572 48.7209C330.547 47.5659 341.031 46.0727 351.929 44.1886C363.504 42.1495 374.49 39.8123 384.839 37.3321C383.538 44.5868 381.848 52.5083 379.539 60.9253L378.034 66.235C377.624 67.5352 377.221 68.8566 376.818 70.178C374.416 77.8257 371.794 84.9097 369.134 91.4233C368.245 93.5402 367.388 95.5604 366.494 97.5556C365.197 100.478 363.895 103.289 362.634 105.934C359.963 102.297 357.263 98.6553 354.603 95.0092C353.469 93.469 352.335 91.9288 351.203 90.3687C346.367 83.7954 341.505 77.1885 336.668 70.6152Z" fill="#446DB7"/>
<path d="M510.412 -9.88418L574.217 27.3246C572.452 15.9774 571.1 2.99702 570.721 -11.3421C570.363 -24.5172 570.939 -36.5615 571.937 -47.2488C564.065 -41.7419 555.68 -36.1702 546.826 -30.6488C534.253 -22.8308 522.072 -15.9418 510.412 -9.88418ZM159.701 43.1934C169.389 44.9704 178.761 46.4541 187.775 47.6593C179.519 55.9846 170.329 66.613 161.488 79.771C155.113 89.2482 150.073 98.3223 146.072 106.541C141.75 97.1561 137.353 86.2464 133.517 73.8843C129.148 59.787 126.424 46.791 124.692 35.4986C135.651 38.2983 147.35 40.9209 159.701 43.1934Z" fill="#F14947"/>
<path d="M571.287 -31.2045C571.631 -31.4428 571.71 -31.8972 571.472 -32.2411L564.725 -42.3939C564.496 -42.7365 564.043 -42.8254 563.699 -42.587C563.356 -42.3487 563.277 -41.8943 563.505 -41.5517L570.262 -31.3976C570.424 -31.1646 570.669 -31.0319 570.914 -31.0507C571.057 -31.0626 571.174 -31.1081 571.287 -31.2045ZM529.77 0.0600968C530.12 -0.147164 530.23 -0.607606 529.992 -0.951472L520.931 -15.554C520.724 -15.9039 520.273 -16.0127 519.931 -15.7843C519.591 -15.5757 519.471 -15.1166 519.709 -14.7727L528.768 -0.160221C528.91 0.0701945 529.187 0.196816 529.451 0.180521C529.543 0.172208 529.659 0.136659 529.77 0.0600968ZM570.526 -13.0437C570.876 -13.251 570.986 -13.7114 570.778 -14.0514L557.019 -37.4715C556.812 -37.8215 556.353 -37.9414 556.013 -37.7329C555.673 -37.5243 555.553 -37.0652 555.76 -36.7152L569.522 -13.3249C569.661 -13.0647 569.937 -12.9381 570.213 -12.963C570.325 -12.9688 570.44 -13.0043 570.526 -13.0437ZM572.058 6.44341C572.398 6.23487 572.508 5.77443 572.28 5.43184L549.039 -32.0596C548.84 -32.3983 548.381 -32.5182 548.037 -32.2799C547.697 -32.0714 547.587 -31.6109 547.815 -31.2683L571.046 6.22181C571.188 6.45223 571.465 6.57885 571.73 6.56255C571.821 6.55424 571.938 6.50876 572.058 6.44341ZM557.876 18.1133C558.182 17.8499 558.241 17.393 557.978 17.0863L528.486 -19.8596C528.224 -20.1762 527.767 -20.2353 527.459 -19.962C527.152 -19.6986 527.095 -19.2517 527.357 -18.935L556.849 18.0109C557.014 18.2141 557.234 18.3131 557.469 18.293C557.616 18.2514 557.762 18.2097 557.876 18.1133ZM574.625 27.9226C574.968 27.6942 575.048 27.2299 574.819 26.8873L538.691 -25.7617C538.453 -26.1056 537.999 -26.1845 537.655 -25.9462C537.322 -25.7165 537.232 -25.2535 537.47 -24.9096L573.598 27.7394C573.761 27.9625 574.011 28.0654 574.246 28.0452C574.395 28.0645 574.51 28.0289 574.625 27.9226ZM369.099 91.4591C368.95 91.4399 368.776 91.4578 368.594 91.4645C366.635 91.6154 365.213 93.3201 365.365 95.2687C365.439 96.1871 365.859 96.9988 366.47 97.5828L369.099 91.4591ZM355.997 88.2816C354.229 87.427 352.142 88.1873 351.29 89.9354C351.233 90.0594 351.162 90.2219 351.111 90.377C352.247 91.9072 353.371 93.4462 354.511 95.0175C355.796 95.0017 357.024 94.2514 357.609 93.0041C358.492 91.2499 357.764 89.1461 355.997 88.2816ZM378.003 66.241C377.692 66.3826 377.307 66.4741 376.919 66.5048C374.96 66.6557 373.302 65.1891 373.15 63.2405C373.006 61.3032 374.448 59.601 376.387 59.4475C377.662 59.3497 378.806 59.952 379.509 60.9214L378.003 66.241ZM360.112 72.6951C358.185 72.8399 356.732 74.5508 356.885 76.4894C357.027 78.4368 358.727 79.8986 360.656 79.7438C362.583 79.599 364.035 77.8981 363.883 75.9495C363.739 74.0121 362.04 72.5503 360.112 72.6951ZM365.091 45.7277C363.163 45.8824 361.711 47.5834 361.863 49.5319C362.006 51.4693 363.706 52.9311 365.634 52.7863C367.561 52.6415 369.014 50.9306 368.861 48.992C368.718 47.0447 367.05 45.5768 365.091 45.7277ZM347.497 58.0878C345.57 58.2326 344.118 59.9335 344.27 61.8821C344.414 63.8195 346.112 65.2912 348.041 65.1365C349.968 64.9917 351.42 63.2908 351.278 61.3435C351.124 59.4048 349.456 57.9369 347.497 58.0878ZM328.571 53.7941C327.266 53.8881 326.192 54.6986 325.678 55.7835L329.379 60.8265C331.21 60.5682 332.492 58.9362 332.352 57.0497C332.229 55.105 330.53 53.6432 328.571 53.7941ZM126.655 46.7199L147.903 41.568C148.279 41.4751 148.554 41.0663 148.431 40.6868C148.308 40.3074 147.939 40.0376 147.551 40.149L126.304 45.3009C125.928 45.3938 125.653 45.8026 125.776 46.182C125.861 46.5364 126.183 46.78 126.54 46.7554C126.595 46.7221 126.626 46.716 126.655 46.7199ZM128.68 56.0606L167.136 45.2045C167.515 45.0918 167.75 44.6778 167.627 44.2984C167.516 43.9103 167.112 43.6764 166.732 43.799L128.276 54.6551C127.898 54.7678 127.663 55.1818 127.775 55.5599C127.861 55.9143 128.207 56.1307 128.533 56.1022C128.568 56.0663 128.619 56.0628 128.68 56.0606ZM131.09 65.6228L187.977 48.362C188.356 48.2393 188.59 47.8353 188.469 47.4459C188.356 47.0678 187.942 46.8325 187.574 46.9466L130.688 64.2073C130.298 64.3287 130.064 64.7327 130.186 65.1221C130.302 65.4704 130.612 65.6518 130.938 65.6333C131.005 65.6622 131.03 65.625 131.09 65.6228ZM133.749 74.5909L179.569 57.3948C179.942 57.241 180.145 56.8431 179.996 56.43C179.844 56.0468 179.446 55.8439 179.033 55.9925L133.221 73.2097C132.847 73.3635 132.633 73.7701 132.792 74.1844C132.902 74.5017 133.211 74.693 133.538 74.6646C133.602 74.6325 133.684 74.6229 133.749 74.5909ZM136.752 83.4723L172.241 66.1935C172.617 66.0199 172.754 65.5832 172.581 65.2073C172.397 64.8301 171.971 64.6842 171.596 64.8578L136.117 82.1379C135.741 82.3115 135.594 82.7469 135.767 83.1228C135.911 83.4141 136.194 83.5718 136.49 83.5494C136.582 83.5411 136.668 83.5017 136.752 83.4723ZM140.014 92.1447L162.96 78.7794C163.308 78.5821 163.418 78.1217 163.242 77.7656C163.044 77.4269 162.584 77.307 162.238 77.4844L139.293 90.8497C138.943 91.057 138.833 91.5175 139.011 91.8635C139.149 92.1238 139.425 92.2504 139.69 92.2341C139.819 92.2508 139.904 92.2213 140.014 92.1447ZM142.59 98.4763L155.151 90.9901C155.491 90.7815 155.611 90.3224 155.403 89.9724C155.195 89.6324 154.736 89.5125 154.396 89.721L141.835 97.2073C141.495 97.4158 141.385 97.8763 141.582 98.2249C141.72 98.4852 142.006 98.6131 142.272 98.5868C142.388 98.5513 142.48 98.543 142.59 98.4763ZM420.177 27.5575L474.237 77.0298C476.464 69.0969 478.522 60.4353 480.186 51.0764C483.354 33.2063 484.408 16.9214 484.343 2.88547C474.393 7.43704 463.696 11.983 452.306 16.3485C441.169 20.6255 430.409 24.3352 420.177 27.5575ZM66.1565 17.2197C75.7138 20.7876 84.9994 23.9568 93.9348 26.7878C87.2154 32.9889 80.2534 39.8959 73.1986 47.5988C62.3963 59.3721 53.2855 70.95 45.6342 81.7065C41.6223 69.5338 37.8226 55.3283 34.9846 39.308C32.6161 25.9843 31.3491 13.6714 30.7317 2.58361C41.7204 7.5786 53.5255 12.5074 66.1565 17.2197Z" fill="#F9B53F"/>
<path d="M296.687 49.5026C302.988 49.0442 309.302 48.4766 315.732 47.8026C438.014 34.7302 529.217 -16.9172 584.194 -57.9353C584.841 -58.4071 585.745 -58.2903 586.247 -57.6398C586.717 -56.9831 586.609 -56.068 585.958 -55.5663C530.668 -14.316 438.976 37.6014 316.041 50.7208C310.53 51.3216 305.045 51.8045 299.649 52.2181C296.058 52.5014 292.461 52.7436 288.924 52.9228C170.365 59.6897 74.4051 26.3043 13.11 -4.14703C12.3997 -4.51149 12.089 -5.38985 12.4487 -6.14121C12.8144 -6.86148 13.6829 -7.17342 14.4329 -6.80383C76.7171 24.1995 175.15 58.2175 296.687 49.5026Z" fill="#F79748"/>
</svg>
