<svg width="440" height="146" viewBox="0 0 440 146" fill="none" xmlns="http://www.w3.org/2000/svg">
<path d="M212.902 58.6436C216.516 50.8952 219.4 43.5945 221.733 36.9509C210.508 37.7751 198.64 38.3089 186.187 38.4637C175.097 38.6041 164.459 38.4234 154.336 38.0045C158.085 43.6502 161.929 49.9502 165.746 56.9808C167.712 60.625 169.689 64.4394 171.589 68.4355C177.713 81.2072 182.115 93.1512 185.305 103.616C192.224 94.7939 199.785 83.8289 206.914 70.6071C209.103 66.527 211.111 62.5308 212.902 58.6436Z" fill="#3BA27A"/>
<path d="M103.046 56.7813C105.44 53.5028 107.839 50.2641 110.243 46.9844L113.945 41.9513C115.679 39.5862 117.408 37.2521 119.142 34.887C109.167 33.732 98.6826 32.2388 87.7847 30.3547C76.2102 28.3156 65.2234 25.9784 54.8746 23.4982C56.1755 30.7529 57.8657 38.6744 60.1753 47.0915L61.6794 52.4011C62.0898 53.7013 62.4928 55.0227 62.8958 56.3441C65.2979 63.9918 67.92 71.0758 70.5795 77.5894C71.4691 79.7064 72.326 81.7266 73.22 83.7217C74.5167 86.6445 75.8191 89.4554 77.0799 92.1001C79.7507 88.4627 82.4513 84.8214 85.1109 81.1753C86.2449 79.6351 87.379 78.0949 88.5105 76.5348C93.3469 69.9616 98.2092 63.3546 103.046 56.7813Z" fill="#446DB7"/>
<path d="M-70.6985 -23.718L-134.504 13.4907C-132.738 2.14353 -131.386 -10.8368 -131.007 -25.176C-130.649 -38.351 -131.226 -50.3954 -132.223 -61.0826C-124.351 -55.5758 -115.966 -50.004 -107.113 -44.4826C-94.5389 -36.6647 -82.358 -29.7757 -70.6985 -23.718ZM280.013 29.3596C270.325 31.1365 260.953 32.6202 251.939 33.8254C260.195 42.1507 269.385 52.7791 278.226 65.9371C284.601 75.4144 289.641 84.4885 293.642 92.7072C297.964 83.3222 302.361 72.4125 306.197 60.0505C310.566 45.9532 313.29 32.9572 315.022 21.6648C304.063 24.4644 292.363 27.0871 280.013 29.3596Z" fill="#F14947"/>
<path d="M-131.574 -45.0384C-131.917 -45.2767 -131.996 -45.7311 -131.758 -46.0749L-125.011 -56.2278C-124.782 -56.5704 -124.329 -56.6592 -123.986 -56.4209C-123.642 -56.1825 -123.563 -55.7282 -123.791 -55.3856L-130.548 -45.2314C-130.71 -44.9985 -130.955 -44.8658 -131.2 -44.8846C-131.343 -44.8964 -131.46 -44.9419 -131.574 -45.0384ZM-90.0561 -13.7738C-90.406 -13.981 -90.516 -14.4415 -90.2777 -14.7853L-81.2171 -29.3879C-81.0099 -29.7378 -80.5594 -29.8465 -80.2168 -29.6181C-79.8768 -29.4096 -79.7568 -28.9504 -79.9952 -28.6065L-89.0544 -13.9941C-89.1963 -13.7637 -89.4728 -13.637 -89.7375 -13.6533C-89.8295 -13.6617 -89.9452 -13.6972 -90.0561 -13.7738ZM-130.812 -26.8776C-131.162 -27.0848 -131.272 -27.5453 -131.064 -27.8853L-117.305 -51.3054C-117.098 -51.6554 -116.639 -51.7753 -116.299 -51.5667C-115.959 -51.3582 -115.839 -50.899 -116.046 -50.5491L-129.809 -27.1588C-129.947 -26.8986 -130.223 -26.7719 -130.499 -26.7969C-130.611 -26.8026 -130.727 -26.8382 -130.812 -26.8776ZM-132.344 -7.39045C-132.684 -7.59899 -132.794 -8.05943 -132.566 -8.40202L-109.325 -45.8934C-109.126 -46.2322 -108.667 -46.3521 -108.323 -46.1138C-107.983 -45.9052 -107.873 -45.4448 -108.101 -45.1022L-131.333 -7.61205C-131.474 -7.38163 -131.751 -7.25501 -132.016 -7.27131C-132.108 -7.27962 -132.225 -7.3251 -132.344 -7.39045ZM-118.162 4.27943C-118.469 4.01609 -118.528 3.55916 -118.264 3.25246L-88.7721 -33.6934C-88.5101 -34.0101 -88.0532 -34.0691 -87.7452 -33.7958C-87.4385 -33.5325 -87.3807 -33.0855 -87.6428 -32.7689L-117.135 4.17702C-117.301 4.38021 -117.52 4.47926 -117.755 4.45912C-117.902 4.41749 -118.048 4.37585 -118.162 4.27943ZM-134.911 14.0887C-135.254 13.8603 -135.334 13.396 -135.105 13.0534L-98.9774 -39.5956C-98.7391 -39.9395 -98.2847 -40.0184 -97.9409 -39.78C-97.6082 -39.5503 -97.5181 -39.0873 -97.7564 -38.7435L-133.884 13.9055C-134.048 14.1286 -134.297 14.2315 -134.532 14.2113C-134.681 14.2306 -134.796 14.1951 -134.911 14.0887ZM70.6145 77.6253C70.7634 77.606 70.9374 77.6239 71.1201 77.6306C73.0786 77.7815 74.5007 79.4863 74.3485 81.4349C74.2753 82.3532 73.855 83.165 73.2438 83.7489L70.6145 77.6253ZM83.7164 74.4477C85.4844 73.5931 87.5722 74.3534 88.4242 76.1016C88.4806 76.2256 88.5521 76.388 88.6024 76.5431C87.4671 78.0734 86.343 79.6123 85.2028 81.1836C83.9182 81.1678 82.6902 80.4176 82.1048 79.1702C81.2217 77.416 81.9497 75.3122 83.7164 74.4477ZM61.7105 52.4071C62.0216 52.5487 62.4071 52.6403 62.7949 52.671C64.7534 52.8219 66.412 51.3553 66.5642 49.4067C66.7077 47.4693 65.2658 45.7671 63.3271 45.6136C62.0521 45.5158 60.9079 46.1181 60.2051 47.0876L61.7105 52.4071ZM79.6018 58.8613C81.5292 59.0061 82.9824 60.7169 82.8289 62.6556C82.6867 64.6029 80.987 66.0647 79.0583 65.91C77.1309 65.7652 75.679 64.0642 75.8312 62.1156C75.9747 60.1783 77.6744 58.7165 79.6018 58.8613ZM74.6225 31.8938C76.5512 32.0486 78.0031 33.7495 77.8509 35.6981C77.7074 37.6354 76.0078 39.0973 74.0803 38.9524C72.1529 38.8076 70.6997 37.0968 70.8532 35.1581C70.9954 33.2108 72.664 31.7429 74.6225 31.8938ZM92.2165 44.2539C94.144 44.3988 95.5958 46.0997 95.4437 48.0483C95.3002 49.9856 93.6018 51.4574 91.6731 51.3026C89.7456 51.1578 88.2938 49.4569 88.436 47.5096C88.5894 45.5709 90.258 44.1031 92.2165 44.2539ZM111.143 39.9602C112.448 40.0542 113.522 40.8647 114.036 41.9496L110.335 46.9926C108.504 46.7344 107.222 45.1023 107.362 43.2159C107.485 41.2711 109.184 39.8093 111.143 39.9602ZM313.058 32.886L291.811 27.7341C291.435 27.6412 291.16 27.2324 291.283 26.853C291.406 26.4736 291.775 26.2037 292.163 26.3151L313.41 31.4671C313.786 31.5599 314.061 31.9688 313.938 32.3482C313.853 32.7026 313.531 32.9462 313.174 32.9216C313.119 32.8883 313.088 32.8822 313.058 32.886ZM311.034 42.2267L272.577 31.3707C272.199 31.2579 271.964 30.844 272.087 30.4646C272.198 30.0765 272.602 29.8425 272.982 29.9652L311.438 40.8212C311.816 40.9339 312.051 41.3479 311.938 41.726C311.853 42.0804 311.507 42.2968 311.18 42.2683C311.145 42.2325 311.095 42.2289 311.034 42.2267ZM308.623 51.7889L251.737 34.5281C251.358 34.4055 251.124 34.0014 251.245 33.6121C251.358 33.234 251.772 32.9987 252.14 33.1127L309.026 50.3735C309.416 50.4948 309.65 50.8989 309.528 51.2882C309.412 51.6365 309.102 51.818 308.776 51.7994C308.709 51.8283 308.684 51.7911 308.623 51.7889ZM305.965 60.757L260.145 43.5609C259.772 43.4072 259.569 43.0092 259.718 42.5962C259.87 42.2129 260.268 42.01 260.681 42.1586L306.493 59.3759C306.867 59.5296 307.081 59.9362 306.922 60.3506C306.812 60.6678 306.503 60.8592 306.176 60.8307C306.112 60.7987 306.03 60.7891 305.965 60.757ZM302.962 69.6384L267.473 52.3597C267.097 52.1861 266.96 51.7493 267.133 51.3734C267.317 50.9962 267.742 50.8504 268.118 51.024L303.597 68.304C303.973 68.4776 304.12 68.9131 303.947 69.289C303.803 69.5802 303.52 69.738 303.224 69.7156C303.132 69.7073 303.046 69.6679 302.962 69.6384ZM299.699 78.3109L276.754 64.9456C276.406 64.7483 276.296 64.2878 276.472 63.9318C276.67 63.5931 277.13 63.4731 277.476 63.6506L300.421 77.0159C300.771 77.2231 300.881 77.6836 300.703 78.0297C300.565 78.2899 300.289 78.4165 300.024 78.4002C299.895 78.4169 299.81 78.3875 299.699 78.3109ZM297.124 84.6425L284.563 77.1562C284.223 76.9477 284.103 76.4885 284.31 76.1386C284.519 75.7985 284.978 75.6786 285.318 75.8872L297.879 83.3734C298.219 83.582 298.329 84.0424 298.132 84.3911C297.994 84.6513 297.707 84.7792 297.441 84.753C297.326 84.7174 297.234 84.7091 297.124 84.6425ZM19.5373 13.7237L-34.5231 63.1959C-36.75 55.263 -38.8084 46.6014 -40.4722 37.2425C-43.6397 19.3725 -44.6937 3.08758 -44.6289 -10.9484C-34.679 -6.39682 -23.9824 -1.85084 -12.5921 2.51461C-1.4556 6.79167 9.30459 10.5013 19.5373 13.7237ZM373.557 3.38588C364 6.95372 354.715 10.1229 345.779 12.9539C352.498 19.155 359.46 26.062 366.515 33.7649C377.318 45.5383 386.428 57.1161 394.08 67.8727C398.092 55.7 401.891 41.4944 404.729 25.4742C407.098 12.1504 408.365 -0.162488 408.982 -11.2503C397.993 -6.25526 386.188 -1.32646 373.557 3.38588Z" fill="#F9B53F"/>
<path d="M143.026 35.6687C136.726 35.2103 130.411 34.6427 123.982 33.9687C1.7 20.8963 -89.5028 -30.751 -144.48 -71.7691C-145.127 -72.241 -146.031 -72.1242 -146.533 -71.4736C-147.003 -70.817 -146.895 -69.9018 -146.245 -69.4001C-90.9543 -28.1498 0.737935 23.7676 123.672 36.887C129.183 37.4878 134.669 37.9706 140.065 38.3843C143.656 38.6675 147.253 38.9098 150.79 39.0889C269.349 45.8558 365.309 12.4704 426.604 -17.9809C427.314 -18.3453 427.625 -19.2237 427.265 -19.9751C426.899 -20.6953 426.031 -21.0073 425.281 -20.6377C362.997 10.3656 264.564 44.3837 143.026 35.6687Z" fill="#F79748"/>
</svg>
